HIERARCHY
ROOT Hips
{
	OFFSET 0.000000 0.000000 0.000000
	CHANNELS 6 Xposition Yposition Zposition Xrotation Yrotation Zrotation
	JOINT LeftUpLeg_virtual
	{
		OFFSET 0.000000 0.000000 0.000000
		CHANNELS 3 Xrotation Yrotation Zrotation
		JOINT LeftUpLeg
		{
			OFFSET 15.427100 -6.655098 0.678600
			CHANNELS 3 Xrotation Yrotation Zrotation
			JOINT LeftLeg
			{
				OFFSET 4.081073 -39.591068 13.024000
				CHANNELS 3 Xrotation Yrotation Zrotation
				JOINT LeftFoot
				{
					OFFSET -4.081074 -37.707932 -15.979700
					CHANNELS 3 Xrotation Yrotation Zrotation
					JOINT LeftToeBase
					{
						OFFSET 5.346399 -15.068900 20.645000
						CHANNELS 3 Xrotation Yrotation Zrotation
						JOINT LeftToe_End
						{
							OFFSET 2.754700 0.931300 11.300900
							CHANNELS 3 Xrotation Yrotation Zrotation
							End Site
							{
								OFFSET 0 0 0
							}
						}
					}
				}
			}
		}
	}
	JOINT RightUpLeg_virtual
	{
		OFFSET 0.000000 0.000000 0.000000
		CHANNELS 3 Xrotation Yrotation Zrotation
		JOINT RightUpLeg
		{
			OFFSET -15.569500 -6.655098 0.678600
			CHANNELS 3 Xrotation Yrotation Zrotation
			JOINT RightLeg
			{
				OFFSET -4.081825 -39.591045 13.023800
				CHANNELS 3 Xrotation Yrotation Zrotation
				JOINT RightFoot
				{
					OFFSET 4.081824 -37.707954 -15.979600
					CHANNELS 3 Xrotation Yrotation Zrotation
					JOINT RightToeBase
					{
						OFFSET -5.346400 -15.068900 20.645000
						CHANNELS 3 Xrotation Yrotation Zrotation
						JOINT RightToe_End
						{
							OFFSET -2.754700 0.931300 11.300900
							CHANNELS 3 Xrotation Yrotation Zrotation
							End Site
							{
								OFFSET 0 0 0
							}
						}
					}
				}
			}
		}
	}
	JOINT Spine_virtual
	{
		OFFSET 0.000000 0.000000 0.000000
		CHANNELS 3 Xrotation Yrotation Zrotation
		JOINT Spine
		{
			OFFSET -0.279200 12.230698 -2.892100
			CHANNELS 3 Xrotation Yrotation Zrotation
			JOINT Spine1
			{
				OFFSET -0.232667 10.192268 -1.242267
				CHANNELS 3 Xrotation Yrotation Zrotation
				JOINT Spine1_split
				{
					OFFSET -0.232667 10.192268 -1.242267
					CHANNELS 3 Xrotation Yrotation Zrotation
					JOINT Spine2
					{
						OFFSET -0.232667 10.192268 -1.242267
						CHANNELS 3 Xrotation Yrotation Zrotation
						JOINT Neck_virtual
						{
							OFFSET 0.000000 0.000000 0.000000
							CHANNELS 3 Xrotation Yrotation Zrotation
							JOINT Neck
							{
								OFFSET -0.418800 17.814194 8.416900
								CHANNELS 3 Xrotation Yrotation Zrotation
								JOINT Head
								{
									OFFSET 0.000000 7.031097 3.806800
									CHANNELS 3 Xrotation Yrotation Zrotation
									JOINT HeadTop_End
									{
										OFFSET 0.000000 24.646606 12.978600
										CHANNELS 3 Xrotation Yrotation Zrotation
										End Site
										{
											OFFSET 0 0 0
										}
									}
								}
							}
						}
						JOINT LeftShoulder_virtual
						{
							OFFSET 0.000000 0.000000 0.000000
							CHANNELS 3 Xrotation Yrotation Zrotation
							JOINT LeftShoulder
							{
								OFFSET 8.476499 7.247704 -3.868750
								CHANNELS 3 Xrotation Yrotation Zrotation
								JOINT LeftShoulder_split
								{
									OFFSET 8.476499 7.247704 -3.868750
									CHANNELS 3 Xrotation Yrotation Zrotation
									JOINT LeftArm
									{
										OFFSET 9.308998 -2.777710 0.208600
										CHANNELS 3 Xrotation Yrotation Zrotation
										JOINT LeftForeArm
										{
											OFFSET 29.972298 0.000000 0.000000
											CHANNELS 3 Xrotation Yrotation Zrotation
											JOINT LeftHand
											{
												OFFSET 26.026505 0.000000 0.000000
												CHANNELS 3 Xrotation Yrotation Zrotation
												End Site
												{
													OFFSET 0 0 0
												}
											}
										}
									}
								}
							}
						}
						JOINT RightShoulder_virtual
						{
							OFFSET 0.000000 0.000000 0.000000
							CHANNELS 3 Xrotation Yrotation Zrotation
							JOINT RightShoulder
							{
								OFFSET -7.570500 7.247704 -3.868750
								CHANNELS 3 Xrotation Yrotation Zrotation
								JOINT RightShoulder_split
								{
									OFFSET -7.570500 7.247704 -3.868750
									CHANNELS 3 Xrotation Yrotation Zrotation
									JOINT RightArm
									{
										OFFSET -9.308998 -2.777710 0.208500
										CHANNELS 3 Xrotation Yrotation Zrotation
										JOINT RightForeArm
										{
											OFFSET -29.972300 0.000000 0.000000
											CHANNELS 3 Xrotation Yrotation Zrotation
											JOINT RightHand
											{
												OFFSET -26.026505 0.000000 0.000000
												CHANNELS 3 Xrotation Yrotation Zrotation
												End Site
												{
													OFFSET 0 0 0
												}
											}
										}
									}
								}
							}
						}
					}
				}
			}
		}
	}
}
MOTION
Frames: 5
Frame Time: 0.03333333
-1.754481 87.751144 0.443520 0.000000 0.000000 0.000000 1.513390 2.730060 -3.665761 -24.086119 6.864051 13.127359 41.650709 -0.277950 0.004252 -2.650663 -2.244358 -3.376861 -15.824655 -0.882303 -1.455728 0.000000 0.000000 0.000000 3.602378 4.123507 -3.341428 -15.277468 -4.329679 5.562690 24.925473 1.181111 -2.272847 -13.115050 2.718258 1.309952 0.135021 0.064859 0.685351 0.000000 0.000000 0.000000 0.584976 0.888386 -3.390081 6.435967 -0.510414 3.799260 2.858868 -1.489895 1.771278 0.917329 -0.473264 0.834858 0.000000 0.000000 0.000000 2.735205 -1.519792 1.403258 -2.218238 4.504605 -0.915995 -1.207995 0.420896 -0.703102 0.000000 0.000000 0.000000 2.845952 -1.781759 1.319090 1.110472 -10.074031 -15.187154 1.446727 2.809078 -3.023609 12.916521 -23.821641 -46.970760 -0.896355 -21.967867 -2.250533 0.000000 0.000000 0.000000 1.572157 -1.450536 2.515144 0.798035 3.162521 16.710369 0.783929 0.351313 -2.750283 7.245466 23.196518 47.755757 -0.488472 34.235268 1.704074 0.000000 0.000000 0.000000 
-0.183325 87.666260 1.999695 0.000000 0.000000 0.000000 1.707123 2.442246 -3.205888 -23.421449 6.105903 13.676295 39.872558 0.402807 -0.249850 -3.501921 -1.759941 -2.454797 -13.746467 -0.307075 -2.629223 0.000000 0.000000 0.000000 3.838030 3.870325 -2.869337 -14.972885 -4.011254 4.430286 25.208111 1.343534 -2.285008 -13.306223 2.367200 1.036678 0.265623 0.011317 0.672069 0.000000 0.000000 0.000000 0.875269 1.018378 -3.283249 6.373270 -0.027904 3.646343 3.127314 -1.247889 1.632125 0.728293 0.476663 0.731405 0.000000 0.000000 0.000000 2.792189 -1.284275 1.226086 -2.181377 4.002611 -0.379573 -1.608020 0.282239 -0.761825 0.000000 0.000000 0.000000 3.098986 -1.479193 1.240759 1.037093 -9.595600 -15.301470 0.668676 3.662717 -3.670174 13.374073 -22.121366 -47.276063 -0.952954 -21.181040 -2.307410 0.000000 0.000000 0.000000 1.668175 -1.216453 2.264492 0.572080 3.198561 16.372863 1.365431 0.961043 -3.100976 6.556259 23.829190 47.551511 -0.404314 37.656168 1.586814 0.000000 0.000000 0.000000 
2.208677 88.048111 4.228851 0.000000 0.000000 0.000000 1.800985 2.286387 -2.366859 -23.061669 5.467081 15.322288 36.692442 1.830593 -0.497250 -2.979384 -0.174547 -3.270398 -10.060056 0.220775 -3.718281 0.000000 0.000000 0.000000 3.750736 4.013524 -2.126204 -13.399739 -3.518956 2.514160 24.875643 1.898487 -2.519636 -13.593172 1.827106 1.430749 0.045113 0.023051 0.580176 0.000000 0.000000 0.000000 1.080884 1.446611 -2.746310 6.534241 1.036092 3.179120 3.379807 -0.288817 1.297703 0.755152 0.814341 0.721380 0.000000 0.000000 0.000000 2.886376 -0.337659 0.808113 -1.941871 3.255067 -0.109425 -2.223938 -1.176159 -0.685205 0.000000 0.000000 0.000000 3.251468 -0.482092 0.923311 0.901357 -9.559468 -15.743784 -0.235622 3.903678 -4.017840 12.740599 -19.300749 -47.732186 -1.049566 -20.835369 -2.302954 0.000000 0.000000 0.000000 1.795805 -0.250648 1.787225 0.306368 3.874279 16.061574 2.104131 0.824299 -3.211974 7.130872 24.030521 46.586374 -0.231930 43.938098 1.275265 0.000000 0.000000 0.000000 
5.088578 88.667511 6.770103 0.000000 0.000000 0.000000 1.739782 2.288020 -1.393675 -23.162167 4.815042 17.709043 32.615605 3.419859 -0.531508 -0.577234 1.574376 -6.235223 -6.386492 0.558986 -4.269165 0.000000 0.000000 0.000000 3.363943 4.260228 -1.281875 -10.756146 -3.045444 0.031256 23.799553 2.863698 -2.793969 -13.810508 1.343144 2.511939 -0.309333 0.091459 0.413011 0.000000 0.000000 0.000000 1.039503 1.842419 -1.956817 6.818774 2.506560 2.539367 3.628290 1.185505 0.838802 1.080165 0.429425 0.723000 0.000000 0.000000 0.000000 3.043572 1.170751 0.260162 -1.596476 2.374425 -0.088135 -2.972549 -3.756736 -0.492584 0.000000 0.000000 0.000000 3.367661 1.050545 0.446380 0.722337 -9.992206 -16.486084 -0.813217 3.566837 -4.179252 11.150186 -15.741477 -48.226449 -1.107997 -20.911382 -2.212867 0.000000 0.000000 0.000000 1.967048 1.275932 1.184846 0.005633 5.129312 15.786046 2.738290 0.127834 -2.954659 8.676504 23.486661 45.047048 0.097531 51.669100 0.715962 0.000000 0.000000 0.000000 
8.111540 89.347946 9.519131 0.000000 0.000000 0.000000 1.491344 2.189950 -0.514702 -23.796826 4.363006 20.505509 28.402848 4.859185 -0.386440 3.220251 2.448545 -10.813351 -4.081188 0.685649 -3.911838 0.000000 0.000000 0.000000 2.798031 4.343920 -0.553522 -7.445756 -2.873685 -2.698013 21.981070 4.143042 -2.926087 -13.933907 1.101445 4.078723 -0.493752 0.194680 0.230646 0.000000 0.000000 0.000000 0.936261 2.128908 -1.204674 7.149779 4.168232 1.903203 3.867024 2.955561 0.337633 1.386899 -0.114412 0.786366 0.000000 0.000000 0.000000 3.262925 3.002142 -0.288053 -1.293028 1.445421 -0.273147 -3.725303 -7.016068 -0.220028 0.000000 0.000000 0.000000 3.466136 2.897153 -0.077809 0.511564 -10.804546 -17.517765 -0.881439 3.048180 -4.197838 8.954262 -11.702732 -48.731231 -1.043297 -21.265495 -2.012149 0.000000 0.000000 0.000000 2.171460 3.125539 0.585779 -0.295647 6.882799 15.571243 3.151936 -0.536712 -2.683621 10.409336 22.099490 43.236142 0.559491 59.609492 -0.036112 0.000000 0.000000 0.000000 
